<?xml version="1.0" encoding="utf-8"?>
<!-- Generator: Adobe Illustrator 21.0.0, SVG Export Plug-In . SVG Version: 6.00 Build 0)  -->
<svg version="1.1" id="Capa_1" xmlns="http://www.w3.org/2000/svg" xmlns:xlink="http://www.w3.org/1999/xlink" x="0px" y="0px"
	 viewBox="0 0 56 56" style="enable-background:new 0 0 56 56;" xml:space="preserve">
<style type="text/css">
	.st0{fill:#184062;}
	.st1{fill:#3477A2;}
	.st2{fill:#3EADB9;}
	.st3{fill:#6DC4A6;}
</style>
<circle class="st0" cx="28" cy="28" r="28"/>
<path class="st1" d="M51,19c0-2.9-0.4-5.8-1.2-8.5C44.7,4.1,36.8,0,28,0C12.5,0,0,12.5,0,28c0,8.8,4.1,16.7,10.5,21.8
	c2.7,0.7,5.6,1.2,8.5,1.2C36.7,51,51,36.7,51,19z"/>
<path class="st2" d="M0,28c0,3.8,0.8,7.4,2.1,10.8c2.6,0.8,5.4,1.2,8.4,1.2C26.2,40,39,27.2,39,11.5c0-3.5-0.6-6.8-1.8-9.9
	c-2.9-1-6-1.6-9.2-1.6C12.5,0,0,12.5,0,28z"/>
<path class="st3" d="M1.6,18.8c0.3,0.4,0.5,0.7,0.9,1.1c3.7,3.7,10.8,2.6,15.9-2.5s6.2-12.2,2.5-15.9c-0.1-0.1-0.3-0.2-0.4-0.4
	C11.6,3.5,4.6,10.2,1.6,18.8z"/>
</svg>
